{
  "accessors": [
    {
      "bufferView": 0,
      "componentType": 5125,
      "count": 7368,
      "type": "SCALAR"
    },
    {
      "bufferView": 1,
      "componentType": 5126,
      "count": 2788,
      "max": [
        310.424774169922,
        50.8903121948242,
        9.87965774536133
      ],
      "min": [
        -310.424774169922,
        -0.893745422363281,
        0.000111579895019531
      ],
      "type": "VEC3"
    },
    {
      "bufferView": 2,
      "componentType": 5126,
      "count": 2788,
      "type": "VEC3"
    },
    {
      "bufferView": 3,
      "componentType": 5126,
      "count": 2788,
      "type": "VEC2"
    }
  ],
  "asset": {
    "generator": "Substance Painter 7.1.1",
    "version": "2.0"
  },
  "bufferViews": [
    {
      "buffer": 0,
      "byteLength": 29472,
      "target": 34963
    },
    {
      "buffer": 0,
      "byteLength": 33456,
      "byteOffset": 29472,
      "target": 34962
    },
    {
      "buffer": 0,
      "byteLength": 33456,
      "byteOffset": 62928,
      "target": 34962
    },
    {
      "buffer": 0,
      "byteLength": 22304,
      "byteOffset": 96384,
      "target": 34962
    }
  ],
  "buffers": [
    {
      "byteLength": 118688,
      "uri": "LOGO.bin"
    }
  ],
  "images": [
    {
      "uri": "DefaultMaterial_baseColor.png"
    },
    {
      "uri": "DefaultMaterial_occlusionRoughnessMetallic.png"
    },
    {
      "uri": "DefaultMaterial_normal.png"
    }
  ],
  "materials": [
    {
      "alphaMode": "OPAQUE",
      "name": "DefaultMaterial",
      "normalTexture": {
        "index": 2
      },
      "occlusionTexture": {
        "index": 1
      },
      "pbrMetallicRoughness": {
        "baseColorTexture": {
          "index": 0
        },
        "metallicRoughnessTexture": {
          "index": 1
        }
      }
    }
  ],
  "meshes": [
    {
      "name": "Text001",
      "primitives": [
        {
          "attributes": {
            "NORMAL": 2,
            "POSITION": 1,
            "TEXCOORD_0": 3
          },
          "indices": 0,
          "material": 0,
          "mode": 4
        }
      ]
    }
  ],
  "nodes": [
    {
      "children": [
        1
      ],
      "name": "RootNode"
    },
    {
      "children": [
        2
      ],
      "name": "Text001",
      "rotation": [
        2.18556959197258e-08,
        0.0,
        0.0,
        1.0
      ],
      "scale": [
        0.00278199999593198,
        0.00278199999593198,
        0.00278199999593198
      ],
      "translation": [
        22.1704845428467,
        0.0,
        36.6091384887695
      ]
    },
    {
      "mesh": 0,
      "name": "Text001"
    }
  ],
  "samplers": [
    {
      "magFilter": 9729,
      "minFilter": 9985,
      "wrapS": 10497,
      "wrapT": 10497
    }
  ],
  "scene": 0,
  "scenes": [
    {
      "name": "Scene",
      "nodes": [
        0
      ]
    }
  ],
  "textures": [
    {
      "sampler": 0,
      "source": 0
    },
    {
      "sampler": 0,
      "source": 1
    },
    {
      "sampler": 0,
      "source": 2
    }
  ]
}